# xmcd
#
# Track frame offsets:
#	150
#	15920
#	34042
#	49885
#	66682
#	81412
#	97992
#	113747
#	129987
#	145500
#	163562
#	184715
#	202632
#	218395
#	234462
#	251480
#	268600
#	285192
#	302095
#	316475
#
# Disc length: 4436
#
# Revision: 6
# Processed by: cddbd v1.5.1PL0 Copyright (c) Steve Scherf et al.
# Submitted via: ExactAudioCopy v0.90b4
# Normalized: r5:DSETVAR1
#
DISCID=04115214
DTITLE=Various Artist - Turn Up The Bass 2
DYEAR=2000
DGENRE=Hits
TTITLE0=Alice DeeJay - Back in  my life
TTITLE1=Roller Girl - Dear Jessie
TTITLE2=Tom Jones and Mousse T. - Sexbomb
TTITLE3=Kim Lukas - All I really want
TTITLE4=Britney Spears - (You drive me ) Crazy
TTITLE5=Junior Jack - My Feeling
TTITLE6=Cargo - Pornstar
TTITLE7=Scoopex - Take on me
TTITLE8=OnePhatDeeva - In and out of my life
TTITLE9=The Artful Dodger - Re-wind the crowd say Bo Selecta
TTITLE10=Basement Jaxx - Jump'n Shout
TTITLE11=Wamdue Project - You're the reason
TTITLE12=Junio Sanchez feat. Dajae - B with you
TTITLE13=Perfect Phase - Horny Horns
TTITLE14=Gouryella - Walhalla
TTITLE15=Vincent De Moor - Between 2 Fires
TTITLE16=Il Caesar - Silencio
TTITLE17=Hani - Baby wants to ride
TTITLE18=Signum feat. Scott - Coming on strong
TTITLE19=Bit Time Charlie - ON the run
EXTD=
EXTT0=
EXTT1=
EXTT2=
EXTT3=
EXTT4=
EXTT5=
EXTT6=
EXTT7=
EXTT8=
EXTT9=
EXTT10=
EXTT11=
EXTT12=
EXTT13=
EXTT14=
EXTT15=
EXTT16=
EXTT17=
EXTT18=
EXTT19=
PLAYORDER=
